<mxfile host="Electron" agent="Mozilla/5.0 (Windows NT 10.0; Win64; x64) AppleWebKit/537.36 (KHTML, like Gecko) draw.io/24.7.17 Chrome/128.0.6613.36 Electron/32.0.1 Safari/537.36" version="24.7.17">
  <diagram name="Page-1" id="58cdce13-f638-feb5-8d6f-7d28b1aa9fa0">
    <mxGraphModel dx="1659" dy="957" grid="1" gridSize="10" guides="1" tooltips="1" connect="1" arrows="1" fold="1" page="1" pageScale="1" pageWidth="1100" pageHeight="850" background="none" math="0" shadow="0">
      <root>
        <mxCell id="0" />
        <mxCell id="1" parent="0" />
        <mxCell id="2a3bc250acf0617d-8" value="Payment (Stripe API)" style="shape=umlFrame;whiteSpace=wrap;html=1;rounded=1;shadow=0;comic=0;labelBackgroundColor=none;strokeWidth=1;fontFamily=Verdana;fontSize=12;align=center;width=90;height=35;" parent="1" vertex="1">
          <mxGeometry x="40" y="40" width="720" height="520" as="geometry" />
        </mxCell>
        <mxCell id="bU1xgcYES5hn-mbilyHR-6" style="edgeStyle=orthogonalEdgeStyle;rounded=0;orthogonalLoop=1;jettySize=auto;html=1;entryX=0;entryY=0.5;entryDx=0;entryDy=0;" edge="1" parent="1" source="382b91b5511bd0f7-6" target="bU1xgcYES5hn-mbilyHR-5">
          <mxGeometry relative="1" as="geometry" />
        </mxCell>
        <mxCell id="bU1xgcYES5hn-mbilyHR-7" value="handlePaymentMethod(paymentMethod: Any)" style="edgeLabel;html=1;align=center;verticalAlign=middle;resizable=0;points=[];" vertex="1" connectable="0" parent="bU1xgcYES5hn-mbilyHR-6">
          <mxGeometry x="-0.4308" relative="1" as="geometry">
            <mxPoint x="46" y="-10" as="offset" />
          </mxGeometry>
        </mxCell>
        <mxCell id="bU1xgcYES5hn-mbilyHR-23" style="edgeStyle=orthogonalEdgeStyle;rounded=0;orthogonalLoop=1;jettySize=auto;html=1;entryX=0.5;entryY=0;entryDx=0;entryDy=0;" edge="1" parent="1" source="382b91b5511bd0f7-6" target="bU1xgcYES5hn-mbilyHR-18">
          <mxGeometry relative="1" as="geometry" />
        </mxCell>
        <mxCell id="bU1xgcYES5hn-mbilyHR-24" value="cancelled()" style="edgeLabel;html=1;align=center;verticalAlign=middle;resizable=0;points=[];" vertex="1" connectable="0" parent="bU1xgcYES5hn-mbilyHR-23">
          <mxGeometry x="0.0072" y="-1" relative="1" as="geometry">
            <mxPoint x="-33" y="-15" as="offset" />
          </mxGeometry>
        </mxCell>
        <mxCell id="382b91b5511bd0f7-6" value="Initiated" style="rounded=1;whiteSpace=wrap;html=1;arcSize=24;fillColor=default;strokeColor=#000000;shadow=0;comic=0;labelBackgroundColor=none;fontFamily=Verdana;fontSize=12;fontColor=#000000;align=center;" parent="1" vertex="1">
          <mxGeometry x="120" y="200" width="120" height="60" as="geometry" />
        </mxCell>
        <mxCell id="2a3bc250acf0617d-9" style="edgeStyle=orthogonalEdgeStyle;html=1;labelBackgroundColor=none;endArrow=open;endSize=8;strokeColor=#000000;fontFamily=Verdana;fontSize=12;align=left;exitX=0.5;exitY=1;exitDx=0;exitDy=0;" parent="1" source="bU1xgcYES5hn-mbilyHR-2" target="382b91b5511bd0f7-6" edge="1">
          <mxGeometry relative="1" as="geometry">
            <mxPoint x="-60" y="60" as="sourcePoint" />
          </mxGeometry>
        </mxCell>
        <mxCell id="bU1xgcYES5hn-mbilyHR-1" value="createPaymentIntent(intent: Intent)" style="edgeLabel;html=1;align=center;verticalAlign=middle;resizable=0;points=[];" vertex="1" connectable="0" parent="2a3bc250acf0617d-9">
          <mxGeometry x="-0.2665" y="-1" relative="1" as="geometry">
            <mxPoint x="91" y="7" as="offset" />
          </mxGeometry>
        </mxCell>
        <mxCell id="bU1xgcYES5hn-mbilyHR-2" value="" style="ellipse;whiteSpace=wrap;html=1;aspect=fixed;fillColor=#000000;" vertex="1" parent="1">
          <mxGeometry x="170" y="90" width="20" height="20" as="geometry" />
        </mxCell>
        <mxCell id="bU1xgcYES5hn-mbilyHR-9" style="rounded=0;orthogonalLoop=1;jettySize=auto;html=1;entryX=0.5;entryY=0;entryDx=0;entryDy=0;" edge="1" parent="1" source="bU1xgcYES5hn-mbilyHR-5" target="bU1xgcYES5hn-mbilyHR-8">
          <mxGeometry relative="1" as="geometry" />
        </mxCell>
        <mxCell id="bU1xgcYES5hn-mbilyHR-10" value="[payment = Successful]" style="edgeLabel;html=1;align=center;verticalAlign=middle;resizable=0;points=[];" vertex="1" connectable="0" parent="bU1xgcYES5hn-mbilyHR-9">
          <mxGeometry x="0.0187" relative="1" as="geometry">
            <mxPoint x="59" y="-16" as="offset" />
          </mxGeometry>
        </mxCell>
        <mxCell id="bU1xgcYES5hn-mbilyHR-16" style="rounded=0;orthogonalLoop=1;jettySize=auto;html=1;entryX=0.5;entryY=0;entryDx=0;entryDy=0;" edge="1" parent="1" source="bU1xgcYES5hn-mbilyHR-5" target="bU1xgcYES5hn-mbilyHR-15">
          <mxGeometry relative="1" as="geometry" />
        </mxCell>
        <mxCell id="bU1xgcYES5hn-mbilyHR-17" value="[payment = Failed]" style="edgeLabel;html=1;align=center;verticalAlign=middle;resizable=0;points=[];" vertex="1" connectable="0" parent="bU1xgcYES5hn-mbilyHR-16">
          <mxGeometry x="-0.1076" y="-1" relative="1" as="geometry">
            <mxPoint x="-53" y="-9" as="offset" />
          </mxGeometry>
        </mxCell>
        <mxCell id="bU1xgcYES5hn-mbilyHR-5" value="Processing" style="rounded=1;whiteSpace=wrap;html=1;arcSize=24;fillColor=default;strokeColor=#000000;shadow=0;comic=0;labelBackgroundColor=none;fontFamily=Verdana;fontSize=12;fontColor=#000000;align=center;" vertex="1" parent="1">
          <mxGeometry x="500" y="200" width="120" height="60" as="geometry" />
        </mxCell>
        <mxCell id="bU1xgcYES5hn-mbilyHR-12" style="edgeStyle=orthogonalEdgeStyle;rounded=0;orthogonalLoop=1;jettySize=auto;html=1;entryX=0.5;entryY=0;entryDx=0;entryDy=0;" edge="1" parent="1" source="bU1xgcYES5hn-mbilyHR-8" target="bU1xgcYES5hn-mbilyHR-14">
          <mxGeometry relative="1" as="geometry" />
        </mxCell>
        <mxCell id="bU1xgcYES5hn-mbilyHR-13" value="closeTransaction(status: Status)" style="edgeLabel;html=1;align=center;verticalAlign=middle;resizable=0;points=[];" vertex="1" connectable="0" parent="bU1xgcYES5hn-mbilyHR-12">
          <mxGeometry x="-0.16" relative="1" as="geometry">
            <mxPoint x="-85" as="offset" />
          </mxGeometry>
        </mxCell>
        <mxCell id="bU1xgcYES5hn-mbilyHR-8" value="Succeeded" style="rounded=1;whiteSpace=wrap;html=1;arcSize=24;fillColor=default;strokeColor=#000000;shadow=0;comic=0;labelBackgroundColor=none;fontFamily=Verdana;fontSize=12;fontColor=#000000;align=center;" vertex="1" parent="1">
          <mxGeometry x="600" y="370" width="120" height="60" as="geometry" />
        </mxCell>
        <mxCell id="bU1xgcYES5hn-mbilyHR-11" value="" style="ellipse;whiteSpace=wrap;html=1;aspect=fixed;fillColor=#000000;" vertex="1" parent="1">
          <mxGeometry x="650" y="503" width="20" height="20" as="geometry" />
        </mxCell>
        <mxCell id="bU1xgcYES5hn-mbilyHR-14" value="" style="ellipse;whiteSpace=wrap;html=1;aspect=fixed;fillColor=none;" vertex="1" parent="1">
          <mxGeometry x="647.5" y="500.5" width="25" height="25" as="geometry" />
        </mxCell>
        <mxCell id="bU1xgcYES5hn-mbilyHR-25" style="edgeStyle=orthogonalEdgeStyle;rounded=0;orthogonalLoop=1;jettySize=auto;html=1;entryX=0.75;entryY=1;entryDx=0;entryDy=0;" edge="1" parent="1" source="bU1xgcYES5hn-mbilyHR-15" target="382b91b5511bd0f7-6">
          <mxGeometry relative="1" as="geometry">
            <Array as="points">
              <mxPoint x="390" y="400" />
              <mxPoint x="390" y="330" />
              <mxPoint x="210" y="330" />
            </Array>
          </mxGeometry>
        </mxCell>
        <mxCell id="bU1xgcYES5hn-mbilyHR-26" value="requestAnotherPaymentMethod()" style="edgeLabel;html=1;align=center;verticalAlign=middle;resizable=0;points=[];" vertex="1" connectable="0" parent="bU1xgcYES5hn-mbilyHR-25">
          <mxGeometry x="0.0322" y="-1" relative="1" as="geometry">
            <mxPoint y="-9" as="offset" />
          </mxGeometry>
        </mxCell>
        <mxCell id="bU1xgcYES5hn-mbilyHR-15" value="Failed" style="rounded=1;whiteSpace=wrap;html=1;arcSize=24;fillColor=default;strokeColor=#000000;shadow=0;comic=0;labelBackgroundColor=none;fontFamily=Verdana;fontSize=12;fontColor=#000000;align=center;" vertex="1" parent="1">
          <mxGeometry x="400" y="370" width="120" height="60" as="geometry" />
        </mxCell>
        <mxCell id="bU1xgcYES5hn-mbilyHR-18" value="Cancelled" style="rounded=1;whiteSpace=wrap;html=1;arcSize=24;fillColor=default;strokeColor=#000000;shadow=0;comic=0;labelBackgroundColor=none;fontFamily=Verdana;fontSize=12;fontColor=#000000;align=center;" vertex="1" parent="1">
          <mxGeometry x="120" y="370" width="120" height="60" as="geometry" />
        </mxCell>
        <mxCell id="bU1xgcYES5hn-mbilyHR-19" style="edgeStyle=orthogonalEdgeStyle;rounded=0;orthogonalLoop=1;jettySize=auto;html=1;entryX=0.5;entryY=0;entryDx=0;entryDy=0;exitX=0.5;exitY=1;exitDx=0;exitDy=0;" edge="1" parent="1" target="bU1xgcYES5hn-mbilyHR-22" source="bU1xgcYES5hn-mbilyHR-18">
          <mxGeometry relative="1" as="geometry">
            <mxPoint x="-20" y="515.5" as="sourcePoint" />
          </mxGeometry>
        </mxCell>
        <mxCell id="bU1xgcYES5hn-mbilyHR-20" value="closeTransaction(status: Status)" style="edgeLabel;html=1;align=center;verticalAlign=middle;resizable=0;points=[];" vertex="1" connectable="0" parent="bU1xgcYES5hn-mbilyHR-19">
          <mxGeometry x="-0.16" relative="1" as="geometry">
            <mxPoint x="85" as="offset" />
          </mxGeometry>
        </mxCell>
        <mxCell id="bU1xgcYES5hn-mbilyHR-21" value="" style="ellipse;whiteSpace=wrap;html=1;aspect=fixed;fillColor=#000000;" vertex="1" parent="1">
          <mxGeometry x="170" y="503" width="20" height="20" as="geometry" />
        </mxCell>
        <mxCell id="bU1xgcYES5hn-mbilyHR-22" value="" style="ellipse;whiteSpace=wrap;html=1;aspect=fixed;fillColor=none;" vertex="1" parent="1">
          <mxGeometry x="167.5" y="500.5" width="25" height="25" as="geometry" />
        </mxCell>
      </root>
    </mxGraphModel>
  </diagram>
</mxfile>
